<svg width="56" height="56" viewBox="0 0 56 56" fill="#ffffff" xmlns="http://www.w3.org/2000/svg">
<path d="M28 4.66669C29.9366 4.66653 31.7999 5.40729 33.2078 6.73707C34.6157 8.06686 35.4614 9.88489 35.5717 11.8184L35.5833 12.25L35.5857 30.8047L35.7723 30.9657C37.9468 32.9043 39.3155 35.5876 39.6083 38.486L39.6527 39.074L39.6667 39.6667C39.667 41.5889 39.1924 43.4815 38.285 45.176C37.3776 46.8706 36.0655 48.3147 34.4655 49.38C32.8654 50.4453 31.027 51.0987 29.1135 51.2822C27.2 51.4656 25.2709 51.1734 23.4976 50.4316C21.7242 49.6898 20.1617 48.5213 18.9488 47.03C17.736 45.5387 16.9104 43.7708 16.5455 41.8835C16.1806 39.9962 16.2877 38.048 16.8572 36.2121C17.4267 34.3762 18.441 32.7094 19.81 31.36L20.23 30.9634L20.4143 30.8047L20.4167 12.25C20.4163 10.3864 21.1022 8.58789 22.3434 7.19776C23.5846 5.80763 25.2942 4.92323 27.146 4.71335L27.5707 4.67835L28 4.66669ZM28 8.16669C26.9749 8.16677 25.9873 8.55246 25.2334 9.24713C24.4795 9.9418 24.0144 10.8946 23.9307 11.9164L23.9167 12.25V32.536L23.1957 33.061C21.8182 34.063 20.7884 35.4707 20.2506 37.087C19.7128 38.7033 19.6939 40.4472 20.1965 42.0748C20.6991 43.7024 21.698 45.1321 23.0534 46.1638C24.4089 47.1954 26.053 47.7775 27.7556 47.8283C29.4583 47.8792 31.1342 47.3964 32.5489 46.4475C33.9635 45.4987 35.046 44.1312 35.6449 42.5365C36.2438 40.9419 36.329 39.1998 35.8887 37.5543C35.4484 35.9088 34.5046 34.4422 33.1893 33.3597L32.8043 33.0634L32.088 32.5384L32.0833 12.25C32.0833 11.1671 31.6531 10.1284 30.8874 9.36267C30.1216 8.59689 29.083 8.16669 28 8.16669V8.16669ZM28 18.6667C28.4641 18.6667 28.9093 18.8511 29.2374 19.1793C29.5656 19.5074 29.75 19.9526 29.75 20.4167V34.1017C31.0801 34.5198 32.2166 35.4004 32.9537 36.5839C33.6907 37.7675 33.9797 39.1759 33.7681 40.554C33.5566 41.9322 32.8587 43.1891 31.8006 44.0972C30.7425 45.0052 29.3943 45.5044 28 45.5044C26.6057 45.5044 25.2575 45.0052 24.1994 44.0972C23.1414 43.1891 22.4434 41.9322 22.2319 40.554C22.0204 39.1759 22.3093 37.7675 23.0464 36.5839C23.7834 35.4004 24.9199 34.5198 26.25 34.1017V20.4167C26.25 19.9526 26.4344 19.5074 26.7626 19.1793C27.0908 18.8511 27.5359 18.6667 28 18.6667V18.6667Z" fill="white"/>
</svg>
